<mxfile host="65bd71144e" modified="2021-01-16T01:23:47.387Z" agent="5.0 (X11; Linux x86_64) AppleWebKit/537.36 (KHTML, like Gecko) Code/1.52.1 Chrome/83.0.4103.122 Electron/9.3.5 Safari/537.36" etag="ujWWvaB3YggLxIzFTpyU" version="13.10.0" type="embed">
    <diagram id="NdK5gm-UnNbnxsYEboSp" name="Page-1">
        <mxGraphModel dx="1107" dy="628" grid="1" gridSize="10" guides="1" tooltips="1" connect="1" arrows="1" fold="1" page="1" pageScale="1" pageWidth="827" pageHeight="1169" math="0" shadow="0">
            <root>
                <mxCell id="0"/>
                <mxCell id="1" parent="0"/>
                <mxCell id="2" value="" style="rounded=0;whiteSpace=wrap;html=1;fillColor=#76608a;strokeColor=#432D57;fontColor=#ffffff;" parent="1" vertex="1">
                    <mxGeometry x="100" y="585" width="560" height="60" as="geometry"/>
                </mxCell>
                <mxCell id="3" value="arm" style="rounded=0;whiteSpace=wrap;html=1;" parent="1" vertex="1">
                    <mxGeometry x="120" y="595" width="120" height="40" as="geometry"/>
                </mxCell>
                <mxCell id="4" value="x86" style="rounded=0;whiteSpace=wrap;html=1;" parent="1" vertex="1">
                    <mxGeometry x="260" y="595" width="120" height="40" as="geometry"/>
                </mxCell>
                <mxCell id="5" value="mips" style="rounded=0;whiteSpace=wrap;html=1;" parent="1" vertex="1">
                    <mxGeometry x="400" y="595" width="120" height="40" as="geometry"/>
                </mxCell>
                <mxCell id="11" value="" style="rounded=0;whiteSpace=wrap;html=1;fillColor=#647687;strokeColor=#314354;fontColor=#ffffff;" parent="1" vertex="1">
                    <mxGeometry x="100" y="510" width="560" height="60" as="geometry"/>
                </mxCell>
                <mxCell id="12" value="linux/unix" style="rounded=0;whiteSpace=wrap;html=1;" parent="1" vertex="1">
                    <mxGeometry x="120" y="520" width="120" height="40" as="geometry"/>
                </mxCell>
                <mxCell id="13" value="windows" style="rounded=0;whiteSpace=wrap;html=1;" parent="1" vertex="1">
                    <mxGeometry x="260" y="520" width="120" height="40" as="geometry"/>
                </mxCell>
                <mxCell id="14" value="网络基础" style="rounded=0;whiteSpace=wrap;html=1;" parent="1" vertex="1">
                    <mxGeometry x="400" y="520" width="120" height="40" as="geometry"/>
                </mxCell>
                <mxCell id="22" value="......" style="rounded=0;whiteSpace=wrap;html=1;" parent="1" vertex="1">
                    <mxGeometry x="530" y="520" width="120" height="40" as="geometry"/>
                </mxCell>
                <mxCell id="23" value="......" style="rounded=0;whiteSpace=wrap;html=1;" parent="1" vertex="1">
                    <mxGeometry x="530" y="595" width="120" height="40" as="geometry"/>
                </mxCell>
                <mxCell id="24" value="" style="rounded=0;whiteSpace=wrap;html=1;fillColor=#6d8764;strokeColor=#3A5431;fontColor=#ffffff;" parent="1" vertex="1">
                    <mxGeometry x="100" y="440" width="560" height="60" as="geometry"/>
                </mxCell>
                <mxCell id="25" value="硬件层" style="text;html=1;strokeColor=none;fillColor=none;align=center;verticalAlign=middle;whiteSpace=wrap;rounded=0;" parent="1" vertex="1">
                    <mxGeometry x="10" y="605" width="70" height="20" as="geometry"/>
                </mxCell>
                <mxCell id="26" value="操作系统层" style="text;html=1;strokeColor=none;fillColor=none;align=center;verticalAlign=middle;whiteSpace=wrap;rounded=0;" parent="1" vertex="1">
                    <mxGeometry x="10" y="530" width="70" height="20" as="geometry"/>
                </mxCell>
                <mxCell id="28" value="C/C++" style="rounded=0;whiteSpace=wrap;html=1;" parent="1" vertex="1">
                    <mxGeometry x="120" y="450" width="80" height="40" as="geometry"/>
                </mxCell>
                <mxCell id="30" value="JAVA" style="rounded=0;whiteSpace=wrap;html=1;" parent="1" vertex="1">
                    <mxGeometry x="210" y="450" width="80" height="40" as="geometry"/>
                </mxCell>
                <mxCell id="31" value="Python" style="rounded=0;whiteSpace=wrap;html=1;" parent="1" vertex="1">
                    <mxGeometry x="300" y="450" width="80" height="40" as="geometry"/>
                </mxCell>
                <mxCell id="32" value="JavaScript" style="rounded=0;whiteSpace=wrap;html=1;" parent="1" vertex="1">
                    <mxGeometry x="390" y="450" width="80" height="40" as="geometry"/>
                </mxCell>
                <mxCell id="33" value="GO" style="rounded=0;whiteSpace=wrap;html=1;" parent="1" vertex="1">
                    <mxGeometry x="480" y="450" width="80" height="40" as="geometry"/>
                </mxCell>
                <mxCell id="34" value="Shell脚本" style="rounded=0;whiteSpace=wrap;html=1;" parent="1" vertex="1">
                    <mxGeometry x="570" y="450" width="80" height="40" as="geometry"/>
                </mxCell>
                <mxCell id="35" value="" style="rounded=0;whiteSpace=wrap;html=1;fillColor=#a0522d;strokeColor=#6D1F00;fontColor=#ffffff;" parent="1" vertex="1">
                    <mxGeometry x="100" y="370" width="560" height="60" as="geometry"/>
                </mxCell>
                <mxCell id="36" value="语言公共层" style="text;html=1;strokeColor=none;fillColor=none;align=center;verticalAlign=middle;whiteSpace=wrap;rounded=0;" parent="1" vertex="1">
                    <mxGeometry x="10" y="390" width="70" height="20" as="geometry"/>
                </mxCell>
                <mxCell id="37" value="语言层" style="text;html=1;strokeColor=none;fillColor=none;align=center;verticalAlign=middle;whiteSpace=wrap;rounded=0;" parent="1" vertex="1">
                    <mxGeometry x="10" y="460" width="70" height="20" as="geometry"/>
                </mxCell>
                <mxCell id="38" value="数据结构" style="rounded=0;whiteSpace=wrap;html=1;" parent="1" vertex="1">
                    <mxGeometry x="120" y="380" width="80" height="40" as="geometry"/>
                </mxCell>
                <mxCell id="39" value="常用算法" style="rounded=0;whiteSpace=wrap;html=1;" parent="1" vertex="1">
                    <mxGeometry x="210" y="380" width="80" height="40" as="geometry"/>
                </mxCell>
                <mxCell id="40" value="设计模式" style="rounded=0;whiteSpace=wrap;html=1;" parent="1" vertex="1">
                    <mxGeometry x="300" y="380" width="80" height="40" as="geometry"/>
                </mxCell>
                <mxCell id="41" value="" style="rounded=0;whiteSpace=wrap;html=1;fillColor=#1ba1e2;strokeColor=#006EAF;fontColor=#ffffff;" parent="1" vertex="1">
                    <mxGeometry x="100" y="300" width="560" height="60" as="geometry"/>
                </mxCell>
                <mxCell id="42" value="框架层" style="text;html=1;strokeColor=none;fillColor=none;align=center;verticalAlign=middle;whiteSpace=wrap;rounded=0;" parent="1" vertex="1">
                    <mxGeometry x="10" y="320" width="70" height="20" as="geometry"/>
                </mxCell>
                <mxCell id="43" value="" style="rounded=0;whiteSpace=wrap;html=1;fillColor=#6a00ff;strokeColor=#3700CC;fontColor=#ffffff;" parent="1" vertex="1">
                    <mxGeometry x="100" y="230" width="560" height="60" as="geometry"/>
                </mxCell>
                <mxCell id="44" value="中间件层" style="text;html=1;strokeColor=none;fillColor=none;align=center;verticalAlign=middle;whiteSpace=wrap;rounded=0;" parent="1" vertex="1">
                    <mxGeometry x="10" y="250" width="70" height="20" as="geometry"/>
                </mxCell>
                <mxCell id="45" value="业务服务" style="rounded=0;whiteSpace=wrap;html=1;fillColor=#0050ef;strokeColor=#001DBC;fontColor=#ffffff;" parent="1" vertex="1">
                    <mxGeometry x="100" y="160" width="560" height="60" as="geometry"/>
                </mxCell>
                <mxCell id="47" value="应用层" style="text;html=1;strokeColor=none;fillColor=none;align=center;verticalAlign=middle;whiteSpace=wrap;rounded=0;" parent="1" vertex="1">
                    <mxGeometry x="10" y="180" width="70" height="20" as="geometry"/>
                </mxCell>
                <mxCell id="48" value="架构设计" style="rounded=0;whiteSpace=wrap;html=1;" parent="1" vertex="1">
                    <mxGeometry x="390" y="380" width="80" height="40" as="geometry"/>
                </mxCell>
                <mxCell id="49" value="IOC框架" style="rounded=0;whiteSpace=wrap;html=1;" parent="1" vertex="1">
                    <mxGeometry x="120" y="310" width="80" height="40" as="geometry"/>
                </mxCell>
                <mxCell id="50" value="AOP框架" style="rounded=0;whiteSpace=wrap;html=1;" parent="1" vertex="1">
                    <mxGeometry x="210" y="310" width="80" height="40" as="geometry"/>
                </mxCell>
                <mxCell id="51" value="ORM框架" style="rounded=0;whiteSpace=wrap;html=1;" parent="1" vertex="1">
                    <mxGeometry x="300" y="310" width="80" height="40" as="geometry"/>
                </mxCell>
                <mxCell id="52" value="RPC框架" style="rounded=0;whiteSpace=wrap;html=1;" parent="1" vertex="1">
                    <mxGeometry x="390" y="310" width="80" height="40" as="geometry"/>
                </mxCell>
                <mxCell id="53" value="微服务框架" style="rounded=0;whiteSpace=wrap;html=1;" parent="1" vertex="1">
                    <mxGeometry x="480" y="310" width="80" height="40" as="geometry"/>
                </mxCell>
                <mxCell id="54" value="mysql" style="rounded=0;whiteSpace=wrap;html=1;" parent="1" vertex="1">
                    <mxGeometry x="120" y="240" width="80" height="40" as="geometry"/>
                </mxCell>
                <mxCell id="56" value="redis" style="rounded=0;whiteSpace=wrap;html=1;" parent="1" vertex="1">
                    <mxGeometry x="210" y="240" width="80" height="40" as="geometry"/>
                </mxCell>
                <mxCell id="57" value="kafka" style="rounded=0;whiteSpace=wrap;html=1;" parent="1" vertex="1">
                    <mxGeometry x="300" y="240" width="80" height="40" as="geometry"/>
                </mxCell>
                <mxCell id="58" value="ES" style="rounded=0;whiteSpace=wrap;html=1;" parent="1" vertex="1">
                    <mxGeometry x="390" y="240" width="80" height="40" as="geometry"/>
                </mxCell>
                <mxCell id="59" value="flink" style="rounded=0;whiteSpace=wrap;html=1;" parent="1" vertex="1">
                    <mxGeometry x="480" y="240" width="80" height="40" as="geometry"/>
                </mxCell>
                <mxCell id="60" value="......" style="rounded=0;whiteSpace=wrap;html=1;" parent="1" vertex="1">
                    <mxGeometry x="570" y="240" width="80" height="40" as="geometry"/>
                </mxCell>
                <mxCell id="61" value="......" style="rounded=0;whiteSpace=wrap;html=1;" parent="1" vertex="1">
                    <mxGeometry x="570" y="310" width="80" height="40" as="geometry"/>
                </mxCell>
            </root>
        </mxGraphModel>
    </diagram>
</mxfile>